<svg xmlns="http://www.w3.org/2000/svg" xmlns:xlink="http://www.w3.org/1999/xlink" viewBox="0 0 23.96 23.96"><defs><style>.cls-1{fill:none;}.cls-2{fill:#505050;}.cls-3{clip-path:url(#clip-path);}</style><clipPath id="clip-path" transform="translate(1 1)"><path class="cls-1" d="M8.39,20.47a1,1,0,0,1,.37-1.37,1.06,1.06,0,0,1,.5-.13h3.45a1,1,0,0,1,1,1,1,1,0,0,1-.13.5,3,3,0,0,1-4.1,1.09A3,3,0,0,1,8.4,20.47ZM1,17a1,1,0,1,1,0-2,2,2,0,0,0,2-2V8A8,8,0,1,1,19,8v5a2,2,0,0,0,2,2,1,1,0,0,1,0,2Z"/></clipPath></defs><g id="Layer_2" data-name="Layer 2"><g id="Layer_1-2" data-name="Layer 1"><g id="Group_3-2" data-name="Group 3-2"><path id="Shape-7" class="cls-2" d="M8.39,20.47a1,1,0,0,1,.37-1.37,1.06,1.06,0,0,1,.5-.13h3.45a1,1,0,0,1,1,1,1,1,0,0,1-.13.5,3,3,0,0,1-4.1,1.09A3,3,0,0,1,8.4,20.47ZM1,17a1,1,0,1,1,0-2,2,2,0,0,0,2-2V8A8,8,0,1,1,19,8v5a2,2,0,0,0,2,2,1,1,0,0,1,0,2Z" transform="translate(1 1)"/><g id="Group_433" data-name="Group 433"><g class="cls-3"><g id="Group_432" data-name="Group 432"><g id="Mask_Group_3" data-name="Mask Group 3"><g id="COLOR_black-3" data-name="COLOR black-3"><rect id="Rectangle-11" class="cls-2" width="23.96" height="23.96"/></g></g></g></g></g></g></g></g></svg>