<svg id="Layer_1" data-name="Layer 1" xmlns="http://www.w3.org/2000/svg" viewBox="0 0 99.25 87.43"><defs><style>.cls-1{fill:#fff;}</style></defs><title>filter</title><path class="cls-1" d="M70.55,17.92v5.81H88V17.92H99.63V12.1H88V6.29H70.55V12.1H.37v5.82Z" transform="translate(-0.37 -6.29)"/><path class="cls-1" d="M70.55,93.71H88V87.9H99.63V82.08H88V76.27H70.55v5.81H.37V87.9H70.55Z" transform="translate(-0.37 -6.29)"/><path class="cls-1" d="M43.41,64.64v5.81H60.86V64.64H99.63V58.82H60.86V53H43.41v5.82H.37v5.82Z" transform="translate(-0.37 -6.29)"/><path class="cls-1" d="M10.78,41.18V47H28.22V41.18H99.63V35.36H28.22V29.55H10.78v5.81H.37v5.82Z" transform="translate(-0.37 -6.29)"/></svg>