<svg id="Layer_1" data-name="Layer 1" xmlns="http://www.w3.org/2000/svg" viewBox="0 0 75.17 99.72"><defs><style>.cls-1{fill:#ada8a8;stroke:#ada8a8;stroke-miterlimit:10;stroke-width:1.5px;}</style></defs><title>location</title><path class="cls-1" d="M50,99.11a2,2,0,0,1-1.35-.51C47.2,97.32,13.17,67,13.17,37.72a36.83,36.83,0,0,1,73.66,0c0,29.24-34,59.6-35.48,60.88A2,2,0,0,1,50,99.11ZM50,5A32.78,32.78,0,0,0,17.26,37.72c0,24.22,26.4,50.58,32.74,56.56,6.34-6,32.74-32.34,32.74-56.56A32.78,32.78,0,0,0,50,5Z" transform="translate(-12.42 -0.14)"/><path class="cls-1" d="M50,58.19A20.47,20.47,0,1,1,70.46,37.72,20.49,20.49,0,0,1,50,58.19Zm0-36.84A16.37,16.37,0,1,0,66.37,37.72,16.38,16.38,0,0,0,50,21.35Z" transform="translate(-12.42 -0.14)"/></svg>