<svg id="Layer_1" data-name="Layer 1" xmlns="http://www.w3.org/2000/svg" viewBox="0 0 100 100"><defs><style>.cls-1{fill:#449d8b;}.cls-2{fill:#fff;}</style></defs><title>appointment</title><circle class="cls-1" cx="50" cy="50" r="50"/><path class="cls-2" d="M32.4,24.29a1.6,1.6,0,0,0-3.2,0v1.82h3.2Z"/><path class="cls-2" d="M42,24.29a1.6,1.6,0,0,0-3.2,0v1.82H42Z"/><path class="cls-2" d="M51.6,24.29a1.6,1.6,0,0,0-3.2,0v1.82h3.2Z"/><path class="cls-2" d="M61.2,24.29a1.6,1.6,0,0,0-3.2,0v1.82h3.2Z"/><path class="cls-2" d="M70.8,24.29a1.6,1.6,0,1,0-3.2,0v1.82h3.2Z"/><path class="cls-2" d="M61.2,63.33h3.2v3.2H61.2Z"/><path class="cls-2" d="M48.4,63.33h3.2v3.2H48.4Z"/><path class="cls-2" d="M35.6,50.64h3.2v3.2H35.6Z"/><path class="cls-2" d="M75.71,26.11H70.8v4.8a1.6,1.6,0,1,1-3.2,0v-4.8H61.2v4.8a1.6,1.6,0,1,1-3.2,0v-4.8H51.6v4.8a1.6,1.6,0,1,1-3.2,0v-4.8H42v4.8a1.6,1.6,0,1,1-3.2,0v-4.8H32.4v4.8a1.6,1.6,0,1,1-3.2,0v-4.8H24.29a1.6,1.6,0,0,0-1.6,1.6V37.84H77.31V27.71A1.6,1.6,0,0,0,75.71,26.11Z"/><path class="cls-2" d="M48.4,50.64h3.2v3.2H48.4Z"/><path class="cls-2" d="M61.2,50.64h3.2v3.2H61.2Z"/><path class="cls-2" d="M22.69,75.71a1.6,1.6,0,0,0,1.6,1.6H75.71a1.6,1.6,0,0,0,1.6-1.6V41H22.69ZM58,49a1.6,1.6,0,0,1,1.6-1.6H66A1.6,1.6,0,0,1,67.6,49v6.4A1.6,1.6,0,0,1,66,57H59.6a1.6,1.6,0,0,1-1.6-1.6Zm0,12.69a1.6,1.6,0,0,1,1.6-1.6H66a1.6,1.6,0,0,1,1.6,1.6v6.4a1.6,1.6,0,0,1-1.6,1.6H59.6a1.6,1.6,0,0,1-1.6-1.6ZM45.2,49a1.6,1.6,0,0,1,1.6-1.6h6.4A1.6,1.6,0,0,1,54.8,49v6.4A1.6,1.6,0,0,1,53.2,57H46.8a1.6,1.6,0,0,1-1.6-1.6Zm0,12.69a1.6,1.6,0,0,1,1.6-1.6h6.4a1.6,1.6,0,0,1,1.6,1.6v6.4a1.6,1.6,0,0,1-1.6,1.6H46.8a1.6,1.6,0,0,1-1.6-1.6ZM32.4,49a1.6,1.6,0,0,1,1.6-1.6h6.4A1.6,1.6,0,0,1,42,49v6.4A1.6,1.6,0,0,1,40.4,57H34a1.6,1.6,0,0,1-1.6-1.6Zm.36,16.33A1.6,1.6,0,0,1,35,65.15l.9.73,3.25-4a1.6,1.6,0,1,1,2.48,2l-4.27,5.25a1.59,1.59,0,0,1-2.25.23L33,67.62a1.59,1.59,0,0,1-.23-2.25Z"/></svg>