<svg id="Layer_1" data-name="Layer 1" xmlns="http://www.w3.org/2000/svg" viewBox="0 0 97.87 97.86"><defs><style>.cls-1{fill:#449d8b;}</style></defs><title>bank</title><path class="cls-1" d="M96,87.6a22.45,22.45,0,0,0-5.2-28.39V45.92h2a2,2,0,0,0,2-2V37.76h2a2,2,0,0,0,2-2,2.06,2.06,0,0,0-.87-1.67L51.16,1.43a2,2,0,0,0-2.32,0L1.94,34.05a2,2,0,0,0-.5,2.84,2,2,0,0,0,1.66.87h2v6.12a2,2,0,0,0,2,2h2V78.54h-2a2,2,0,0,0-2,2v6.49a6.11,6.11,0,0,0-4.07,5.75v4.07a2,2,0,0,0,2,2H96.9a2,2,0,0,0,2-2V92.82A6.09,6.09,0,0,0,96,87.6Zm-5.2-45.76H74.47V37.77H90.78ZM86.7,45.92V56.54a22.17,22.17,0,0,0-8.16-2.36V45.92ZM50,5.59l40.39,28.1H9.61Zm-22.43,73h-2V45.92h2a2,2,0,0,0,2-2V37.76h8.16v6.12a2,2,0,0,0,2,2h2V78.54h-2a2,2,0,0,0-2,2V86.7H29.61V80.58A2,2,0,0,0,27.57,78.54Zm14.27,4.08H55a22.81,22.81,0,0,0,1.62,4.08H41.84V82.62Zm4.08-4.08V45.92h8.16V78.54Zm10.2-36.7H41.84V37.77H58.16v4.07Zm2,4.08h2a2,2,0,0,0,2-2V37.76h8.16v6.12a2,2,0,0,0,2,2h2v8.26a22.39,22.39,0,0,0-16.31,9.46ZM9.22,37.76H25.53v4.08H9.22Zm12.24,8.16V78.54H13.3V45.92ZM9.22,82.62H25.53V86.7H9.22ZM5.14,94.85v-2a2,2,0,0,1,2-2h52a22.19,22.19,0,0,0,4.42,4.07Zm89.72,0H89.35A22,22,0,0,0,93.63,91a2.05,2.05,0,0,1,1.23,1.86Zm-18.35,0A18.35,18.35,0,1,1,94.86,76.5,18.34,18.34,0,0,1,76.51,94.85Z" transform="translate(-1.07 -1.07)"/><path class="cls-1" d="M73.73,25.92,51.3,9.61l-2.5,3.3L66.15,25.53H29.61v4.08H72.43a2,2,0,0,0,1.3-3.69Z" transform="translate(-1.07 -1.07)"/><path class="cls-1" d="M80.58,66.31h-2V62.23H74.47v4.08h-2a4.08,4.08,0,0,0-4.08,4.08v4.08a4.08,4.08,0,0,0,4.08,4.07h8.15v4.08H72.43v-2H68.35v2a4.08,4.08,0,0,0,4.08,4.08h2v4.08h4.07V86.7h2a4.08,4.08,0,0,0,4.08-4.08V78.54a4.07,4.07,0,0,0-4.08-4.07H72.43V70.39h8.15v2h4.08v-2A4.08,4.08,0,0,0,80.58,66.31Z" transform="translate(-1.07 -1.07)"/></svg>