<svg id="Layer_1" data-name="Layer 1" xmlns="http://www.w3.org/2000/svg" viewBox="0 0 100.05 68.64"><defs><style>.cls-1{fill:#449d8b;stroke:#449d8b;stroke-miterlimit:10;}</style></defs><title>credit-card</title><path class="cls-1" d="M12,70.94H9.42A6.49,6.49,0,0,1,2.89,64.5V25.21a6.62,6.62,0,0,1,6.53-6.62H80.26a6.66,6.66,0,0,1,6.58,6.62v2.64h2.42V25.21a9.08,9.08,0,0,0-9-9H9.42a9,9,0,0,0-8.95,9V64.47A8.91,8.91,0,0,0,9.4,73.35H12Z" transform="translate(0.03 -15.68)"/><path class="cls-1" d="M7.92,23.53a1.21,1.21,0,0,0-2.41,0v.87a1.21,1.21,0,1,0,2.41,0Z" transform="translate(0.03 -15.68)"/><path class="cls-1" d="M6.72,27.42a1.21,1.21,0,0,0-1.21,1.21v15.3a1.21,1.21,0,0,0,2.41,0V28.63A1.21,1.21,0,0,0,6.72,27.42Z" transform="translate(0.03 -15.68)"/><path class="cls-1" d="M99.53,35.59a9,9,0,0,0-9-8.94H19.69a9,9,0,0,0-9,8.94V74.87a9,9,0,0,0,9,8.95H90.58a9,9,0,0,0,9-8.95ZM97.11,45.77H13.16V39.13h84ZM19.74,29.06H90.58a6.49,6.49,0,0,1,6.53,6.44v1.21H13.16V35.53a6.53,6.53,0,0,1,6.58-6.47ZM13.16,48.19h84v26.6a6.62,6.62,0,0,1-6.53,6.62H19.74a6.66,6.66,0,0,1-6.58-6.62Z" transform="translate(0.03 -15.68)"/><path class="cls-1" d="M71.38,74.16H84.81a6.45,6.45,0,0,0,0-12.89H71.38a6.45,6.45,0,0,0,0,12.89Zm0-10.47H84.81a4,4,0,1,1,0,8H71.38a4,4,0,1,1,0-8Z" transform="translate(0.03 -15.68)"/><path class="cls-1" d="M20.23,66.11H38a1.21,1.21,0,1,0,0-2.42H20.23a1.21,1.21,0,0,0,0,2.42Z" transform="translate(0.03 -15.68)"/><path class="cls-1" d="M43.42,66.11H45.1a1.21,1.21,0,0,0,0-2.42H43.42a1.21,1.21,0,0,0,0,2.42Z" transform="translate(0.03 -15.68)"/><path class="cls-1" d="M20.23,71.94h2.51a1.21,1.21,0,1,0,0-2.41H20.23a1.21,1.21,0,1,0,0,2.41Z" transform="translate(0.03 -15.68)"/><path class="cls-1" d="M33.46,69.53H28.31a1.21,1.21,0,1,0,0,2.41h5.15a1.21,1.21,0,0,0,0-2.41Z" transform="translate(0.03 -15.68)"/><path class="cls-1" d="M45.1,69.53H38.86a1.21,1.21,0,1,0,0,2.41H45.1a1.21,1.21,0,1,0,0-2.41Z" transform="translate(0.03 -15.68)"/></svg>