<svg id="Layer_1" data-name="Layer 1" xmlns="http://www.w3.org/2000/svg" viewBox="0 0 79.9 98.34"><defs><style>.cls-1{fill:#ada8a8;}</style></defs><title>delete</title><path class="cls-1" d="M82.27,13.12H65.37V10.05A9.24,9.24,0,0,0,56.15.83H43.85a9.24,9.24,0,0,0-9.22,9.22v3.07H17.73a7.7,7.7,0,0,0-7.68,7.69V31.56a3.07,3.07,0,0,0,3.07,3.07H14.8l2.66,55.76a9.21,9.21,0,0,0,9.21,8.78H73.33a9.21,9.21,0,0,0,9.21-8.78L85.2,34.63h1.68A3.07,3.07,0,0,0,90,31.56V20.81a7.7,7.7,0,0,0-7.68-7.69ZM40.78,10.05A3.08,3.08,0,0,1,43.85,7h12.3a3.08,3.08,0,0,1,3.07,3.07v3.07H40.78ZM16.2,20.81a1.54,1.54,0,0,1,1.53-1.54H82.27a1.54,1.54,0,0,1,1.53,1.54v7.68H16.2ZM76.4,90.1A3.05,3.05,0,0,1,73.33,93H26.67A3.05,3.05,0,0,1,23.6,90.1L21,34.63H79Z" transform="translate(-10.05 -0.83)"/><path class="cls-1" d="M50,86.88a3.07,3.07,0,0,0,3.07-3.08V43.85a3.07,3.07,0,1,0-6.14,0V83.8A3.07,3.07,0,0,0,50,86.88Z" transform="translate(-10.05 -0.83)"/><path class="cls-1" d="M65.37,86.88a3.08,3.08,0,0,0,3.07-3.08V43.85a3.08,3.08,0,0,0-6.15,0V83.8A3.08,3.08,0,0,0,65.37,86.88Z" transform="translate(-10.05 -0.83)"/><path class="cls-1" d="M34.63,86.88a3.08,3.08,0,0,0,3.08-3.08V43.85a3.08,3.08,0,0,0-6.15,0V83.8A3.08,3.08,0,0,0,34.63,86.88Z" transform="translate(-10.05 -0.83)"/></svg>